<?xml version="1.0" encoding="UTF-8"?>
<svg xmlns="http://www.w3.org/2000/svg" xmlns:xlink="http://www.w3.org/1999/xlink"
     viewBox="0 0 640.00 1580.00"
     width="640.00" height="1580.00"
     font-family="Microsoft YaHei, SimHei, Arial, sans-serif">
  <defs>
    <!-- 箭头 marker -->
    <marker id="arr-main" viewBox="0 0 10 10" refX="9" refY="5"
            markerWidth="8" markerHeight="8" orient="auto-start-reverse">
      <path d="M0,0 L10,5 L0,10 z" fill="#1890FF"/>
    </marker>
    <marker id="arr-backup" viewBox="0 0 10 10" refX="9" refY="5"
            markerWidth="8" markerHeight="8" orient="auto-start-reverse">
      <path d="M0,0 L10,5 L0,10 z" fill="#FA8C16"/>
    </marker>
    
  </defs>
  <rect x="0" y="0" width="640.00" height="1580.00" fill="#FFFFFF"/>
  <g><rect x="50.0" y="780.00" width="140.0" height="60.0" rx="8" fill="#00A854" stroke="#262626" stroke-width="2.5"/><text x="120.0" y="806.0" text-anchor="middle" font-size="13" font-weight="bold" fill="white">10kVLINE111</text><text x="120.0" y="824.0" text-anchor="middle" font-size="9" fill="#E6F4FF">目标馈线</text></g>
  <g><rect x="450.0" y="577.00" width="140.0" height="60.0" rx="8" fill="white" stroke="#FF6A00" stroke-width="2.5"/><text x="520.0" y="603.0" text-anchor="middle" font-size="12" font-weight="bold" fill="#262626">10kVLINE112</text><text x="520.0" y="621.0" text-anchor="middle" font-size="9" fill="#595959">32个联络开关</text></g>
  <g><rect x="270.0" y="90.00" width="100.0" height="26.0" rx="4" fill="#FFF7E6" stroke="#FF6A00" stroke-width="1.5"/><text x="320.0" y="106.5" text-anchor="middle" font-size="9.5" fill="#262626">开关00004</text></g>
  <line x1="190.0" y1="810.00" x2="270.0" y2="103.00" stroke="#FF6A00" stroke-width="1.8" stroke-dasharray="5 3"/>
  <line x1="370.0" y1="103.00" x2="450.0" y2="607.00" stroke="#FF6A00" stroke-width="1.8" stroke-dasharray="5 3"/>
  <g><rect x="270.0" y="122.00" width="100.0" height="26.0" rx="4" fill="#FFF7E6" stroke="#FF6A00" stroke-width="1.5"/><text x="320.0" y="138.5" text-anchor="middle" font-size="9.5" fill="#262626">开关00005</text></g>
  <line x1="190.0" y1="810.00" x2="270.0" y2="135.00" stroke="#FF6A00" stroke-width="1.8" stroke-dasharray="5 3"/>
  <line x1="370.0" y1="135.00" x2="450.0" y2="607.00" stroke="#FF6A00" stroke-width="1.8" stroke-dasharray="5 3"/>
  <g><rect x="270.0" y="154.00" width="100.0" height="26.0" rx="4" fill="#FFF7E6" stroke="#FF6A00" stroke-width="1.5"/><text x="320.0" y="170.5" text-anchor="middle" font-size="9.5" fill="#262626">开关00006</text></g>
  <line x1="190.0" y1="810.00" x2="270.0" y2="167.00" stroke="#FF6A00" stroke-width="1.8" stroke-dasharray="5 3"/>
  <line x1="370.0" y1="167.00" x2="450.0" y2="607.00" stroke="#FF6A00" stroke-width="1.8" stroke-dasharray="5 3"/>
  <g><rect x="270.0" y="186.00" width="100.0" height="26.0" rx="4" fill="#FFF7E6" stroke="#FF6A00" stroke-width="1.5"/><text x="320.0" y="202.5" text-anchor="middle" font-size="9.5" fill="#262626">开关00007</text></g>
  <line x1="190.0" y1="810.00" x2="270.0" y2="199.00" stroke="#FF6A00" stroke-width="1.8" stroke-dasharray="5 3"/>
  <line x1="370.0" y1="199.00" x2="450.0" y2="607.00" stroke="#FF6A00" stroke-width="1.8" stroke-dasharray="5 3"/>
  <g><rect x="270.0" y="218.00" width="100.0" height="26.0" rx="4" fill="#FFF7E6" stroke="#FF6A00" stroke-width="1.5"/><text x="320.0" y="234.5" text-anchor="middle" font-size="9.5" fill="#262626">开关00008</text></g>
  <line x1="190.0" y1="810.00" x2="270.0" y2="231.00" stroke="#FF6A00" stroke-width="1.8" stroke-dasharray="5 3"/>
  <line x1="370.0" y1="231.00" x2="450.0" y2="607.00" stroke="#FF6A00" stroke-width="1.8" stroke-dasharray="5 3"/>
  <g><rect x="270.0" y="250.00" width="100.0" height="26.0" rx="4" fill="#FFF7E6" stroke="#FF6A00" stroke-width="1.5"/><text x="320.0" y="266.5" text-anchor="middle" font-size="9.5" fill="#262626">开关00009</text></g>
  <line x1="190.0" y1="810.00" x2="270.0" y2="263.00" stroke="#FF6A00" stroke-width="1.8" stroke-dasharray="5 3"/>
  <line x1="370.0" y1="263.00" x2="450.0" y2="607.00" stroke="#FF6A00" stroke-width="1.8" stroke-dasharray="5 3"/>
  <g><rect x="270.0" y="282.00" width="100.0" height="26.0" rx="4" fill="#FFF7E6" stroke="#FF6A00" stroke-width="1.5"/><text x="320.0" y="298.5" text-anchor="middle" font-size="9.5" fill="#262626">开关00019</text></g>
  <line x1="190.0" y1="810.00" x2="270.0" y2="295.00" stroke="#FF6A00" stroke-width="1.8" stroke-dasharray="5 3"/>
  <line x1="370.0" y1="295.00" x2="450.0" y2="607.00" stroke="#FF6A00" stroke-width="1.8" stroke-dasharray="5 3"/>
  <g><rect x="270.0" y="314.00" width="100.0" height="26.0" rx="4" fill="#FFF7E6" stroke="#FF6A00" stroke-width="1.5"/><text x="320.0" y="330.5" text-anchor="middle" font-size="9.5" fill="#262626">开关00027</text></g>
  <line x1="190.0" y1="810.00" x2="270.0" y2="327.00" stroke="#FF6A00" stroke-width="1.8" stroke-dasharray="5 3"/>
  <line x1="370.0" y1="327.00" x2="450.0" y2="607.00" stroke="#FF6A00" stroke-width="1.8" stroke-dasharray="5 3"/>
  <g><rect x="270.0" y="346.00" width="100.0" height="26.0" rx="4" fill="#FFF7E6" stroke="#FF6A00" stroke-width="1.5"/><text x="320.0" y="362.5" text-anchor="middle" font-size="9.5" fill="#262626">开关00035</text></g>
  <line x1="190.0" y1="810.00" x2="270.0" y2="359.00" stroke="#FF6A00" stroke-width="1.8" stroke-dasharray="5 3"/>
  <line x1="370.0" y1="359.00" x2="450.0" y2="607.00" stroke="#FF6A00" stroke-width="1.8" stroke-dasharray="5 3"/>
  <g><rect x="270.0" y="378.00" width="100.0" height="26.0" rx="4" fill="#FFF7E6" stroke="#FF6A00" stroke-width="1.5"/><text x="320.0" y="394.5" text-anchor="middle" font-size="9.5" fill="#262626">开关00048</text></g>
  <line x1="190.0" y1="810.00" x2="270.0" y2="391.00" stroke="#FF6A00" stroke-width="1.8" stroke-dasharray="5 3"/>
  <line x1="370.0" y1="391.00" x2="450.0" y2="607.00" stroke="#FF6A00" stroke-width="1.8" stroke-dasharray="5 3"/>
  <g><rect x="270.0" y="410.00" width="100.0" height="26.0" rx="4" fill="#FFF7E6" stroke="#FF6A00" stroke-width="1.5"/><text x="320.0" y="426.5" text-anchor="middle" font-size="9.5" fill="#262626">开关00049</text></g>
  <line x1="190.0" y1="810.00" x2="270.0" y2="423.00" stroke="#FF6A00" stroke-width="1.8" stroke-dasharray="5 3"/>
  <line x1="370.0" y1="423.00" x2="450.0" y2="607.00" stroke="#FF6A00" stroke-width="1.8" stroke-dasharray="5 3"/>
  <g><rect x="270.0" y="442.00" width="100.0" height="26.0" rx="4" fill="#FFF7E6" stroke="#FF6A00" stroke-width="1.5"/><text x="320.0" y="458.5" text-anchor="middle" font-size="9.5" fill="#262626">开关00050</text></g>
  <line x1="190.0" y1="810.00" x2="270.0" y2="455.00" stroke="#FF6A00" stroke-width="1.8" stroke-dasharray="5 3"/>
  <line x1="370.0" y1="455.00" x2="450.0" y2="607.00" stroke="#FF6A00" stroke-width="1.8" stroke-dasharray="5 3"/>
  <g><rect x="270.0" y="474.00" width="100.0" height="26.0" rx="4" fill="#FFF7E6" stroke="#FF6A00" stroke-width="1.5"/><text x="320.0" y="490.5" text-anchor="middle" font-size="9.5" fill="#262626">开关00051</text></g>
  <line x1="190.0" y1="810.00" x2="270.0" y2="487.00" stroke="#FF6A00" stroke-width="1.8" stroke-dasharray="5 3"/>
  <line x1="370.0" y1="487.00" x2="450.0" y2="607.00" stroke="#FF6A00" stroke-width="1.8" stroke-dasharray="5 3"/>
  <g><rect x="270.0" y="506.00" width="100.0" height="26.0" rx="4" fill="#FFF7E6" stroke="#FF6A00" stroke-width="1.5"/><text x="320.0" y="522.5" text-anchor="middle" font-size="9.5" fill="#262626">开关00052</text></g>
  <line x1="190.0" y1="810.00" x2="270.0" y2="519.00" stroke="#FF6A00" stroke-width="1.8" stroke-dasharray="5 3"/>
  <line x1="370.0" y1="519.00" x2="450.0" y2="607.00" stroke="#FF6A00" stroke-width="1.8" stroke-dasharray="5 3"/>
  <g><rect x="270.0" y="538.00" width="100.0" height="26.0" rx="4" fill="#FFF7E6" stroke="#FF6A00" stroke-width="1.5"/><text x="320.0" y="554.5" text-anchor="middle" font-size="9.5" fill="#262626">开关00053</text></g>
  <line x1="190.0" y1="810.00" x2="270.0" y2="551.00" stroke="#FF6A00" stroke-width="1.8" stroke-dasharray="5 3"/>
  <line x1="370.0" y1="551.00" x2="450.0" y2="607.00" stroke="#FF6A00" stroke-width="1.8" stroke-dasharray="5 3"/>
  <g><rect x="270.0" y="570.00" width="100.0" height="26.0" rx="4" fill="#FFF7E6" stroke="#FF6A00" stroke-width="1.5"/><text x="320.0" y="586.5" text-anchor="middle" font-size="9.5" fill="#262626">开关00060</text></g>
  <line x1="190.0" y1="810.00" x2="270.0" y2="583.00" stroke="#FF6A00" stroke-width="1.8" stroke-dasharray="5 3"/>
  <line x1="370.0" y1="583.00" x2="450.0" y2="607.00" stroke="#FF6A00" stroke-width="1.8" stroke-dasharray="5 3"/>
  <g><rect x="270.0" y="602.00" width="100.0" height="26.0" rx="4" fill="#FFF7E6" stroke="#FF6A00" stroke-width="1.5"/><text x="320.0" y="618.5" text-anchor="middle" font-size="9.5" fill="#262626">开关00066</text></g>
  <line x1="190.0" y1="810.00" x2="270.0" y2="615.00" stroke="#FF6A00" stroke-width="1.8" stroke-dasharray="5 3"/>
  <line x1="370.0" y1="615.00" x2="450.0" y2="607.00" stroke="#FF6A00" stroke-width="1.8" stroke-dasharray="5 3"/>
  <g><rect x="270.0" y="634.00" width="100.0" height="26.0" rx="4" fill="#FFF7E6" stroke="#FF6A00" stroke-width="1.5"/><text x="320.0" y="650.5" text-anchor="middle" font-size="9.5" fill="#262626">开关00074</text></g>
  <line x1="190.0" y1="810.00" x2="270.0" y2="647.00" stroke="#FF6A00" stroke-width="1.8" stroke-dasharray="5 3"/>
  <line x1="370.0" y1="647.00" x2="450.0" y2="607.00" stroke="#FF6A00" stroke-width="1.8" stroke-dasharray="5 3"/>
  <g><rect x="270.0" y="666.00" width="100.0" height="26.0" rx="4" fill="#FFF7E6" stroke="#FF6A00" stroke-width="1.5"/><text x="320.0" y="682.5" text-anchor="middle" font-size="9.5" fill="#262626">开关00082</text></g>
  <line x1="190.0" y1="810.00" x2="270.0" y2="679.00" stroke="#FF6A00" stroke-width="1.8" stroke-dasharray="5 3"/>
  <line x1="370.0" y1="679.00" x2="450.0" y2="607.00" stroke="#FF6A00" stroke-width="1.8" stroke-dasharray="5 3"/>
  <g><rect x="270.0" y="698.00" width="100.0" height="26.0" rx="4" fill="#FFF7E6" stroke="#FF6A00" stroke-width="1.5"/><text x="320.0" y="714.5" text-anchor="middle" font-size="9.5" fill="#262626">开关00092</text></g>
  <line x1="190.0" y1="810.00" x2="270.0" y2="711.00" stroke="#FF6A00" stroke-width="1.8" stroke-dasharray="5 3"/>
  <line x1="370.0" y1="711.00" x2="450.0" y2="607.00" stroke="#FF6A00" stroke-width="1.8" stroke-dasharray="5 3"/>
  <g><rect x="270.0" y="730.00" width="100.0" height="26.0" rx="4" fill="#FFF7E6" stroke="#FF6A00" stroke-width="1.5"/><text x="320.0" y="746.5" text-anchor="middle" font-size="9.5" fill="#262626">开关00093</text></g>
  <line x1="190.0" y1="810.00" x2="270.0" y2="743.00" stroke="#FF6A00" stroke-width="1.8" stroke-dasharray="5 3"/>
  <line x1="370.0" y1="743.00" x2="450.0" y2="607.00" stroke="#FF6A00" stroke-width="1.8" stroke-dasharray="5 3"/>
  <g><rect x="270.0" y="762.00" width="100.0" height="26.0" rx="4" fill="#FFF7E6" stroke="#FF6A00" stroke-width="1.5"/><text x="320.0" y="778.5" text-anchor="middle" font-size="9.5" fill="#262626">开关00094</text></g>
  <line x1="190.0" y1="810.00" x2="270.0" y2="775.00" stroke="#FF6A00" stroke-width="1.8" stroke-dasharray="5 3"/>
  <line x1="370.0" y1="775.00" x2="450.0" y2="607.00" stroke="#FF6A00" stroke-width="1.8" stroke-dasharray="5 3"/>
  <g><rect x="270.0" y="794.00" width="100.0" height="26.0" rx="4" fill="#FFF7E6" stroke="#FF6A00" stroke-width="1.5"/><text x="320.0" y="810.5" text-anchor="middle" font-size="9.5" fill="#262626">开关00095</text></g>
  <line x1="190.0" y1="810.00" x2="270.0" y2="807.00" stroke="#FF6A00" stroke-width="1.8" stroke-dasharray="5 3"/>
  <line x1="370.0" y1="807.00" x2="450.0" y2="607.00" stroke="#FF6A00" stroke-width="1.8" stroke-dasharray="5 3"/>
  <g><rect x="270.0" y="826.00" width="100.0" height="26.0" rx="4" fill="#FFF7E6" stroke="#FF6A00" stroke-width="1.5"/><text x="320.0" y="842.5" text-anchor="middle" font-size="9.5" fill="#262626">开关00096</text></g>
  <line x1="190.0" y1="810.00" x2="270.0" y2="839.00" stroke="#FF6A00" stroke-width="1.8" stroke-dasharray="5 3"/>
  <line x1="370.0" y1="839.00" x2="450.0" y2="607.00" stroke="#FF6A00" stroke-width="1.8" stroke-dasharray="5 3"/>
  <g><rect x="270.0" y="858.00" width="100.0" height="26.0" rx="4" fill="#FFF7E6" stroke="#FF6A00" stroke-width="1.5"/><text x="320.0" y="874.5" text-anchor="middle" font-size="9.5" fill="#262626">开关00097</text></g>
  <line x1="190.0" y1="810.00" x2="270.0" y2="871.00" stroke="#FF6A00" stroke-width="1.8" stroke-dasharray="5 3"/>
  <line x1="370.0" y1="871.00" x2="450.0" y2="607.00" stroke="#FF6A00" stroke-width="1.8" stroke-dasharray="5 3"/>
  <g><rect x="270.0" y="890.00" width="100.0" height="26.0" rx="4" fill="#FFF7E6" stroke="#FF6A00" stroke-width="1.5"/><text x="320.0" y="906.5" text-anchor="middle" font-size="9.5" fill="#262626">开关00106</text></g>
  <line x1="190.0" y1="810.00" x2="270.0" y2="903.00" stroke="#FF6A00" stroke-width="1.8" stroke-dasharray="5 3"/>
  <line x1="370.0" y1="903.00" x2="450.0" y2="607.00" stroke="#FF6A00" stroke-width="1.8" stroke-dasharray="5 3"/>
  <g><rect x="270.0" y="922.00" width="100.0" height="26.0" rx="4" fill="#FFF7E6" stroke="#FF6A00" stroke-width="1.5"/><text x="320.0" y="938.5" text-anchor="middle" font-size="9.5" fill="#262626">开关00114</text></g>
  <line x1="190.0" y1="810.00" x2="270.0" y2="935.00" stroke="#FF6A00" stroke-width="1.8" stroke-dasharray="5 3"/>
  <line x1="370.0" y1="935.00" x2="450.0" y2="607.00" stroke="#FF6A00" stroke-width="1.8" stroke-dasharray="5 3"/>
  <g><rect x="270.0" y="954.00" width="100.0" height="26.0" rx="4" fill="#FFF7E6" stroke="#FF6A00" stroke-width="1.5"/><text x="320.0" y="970.5" text-anchor="middle" font-size="9.5" fill="#262626">开关00120</text></g>
  <line x1="190.0" y1="810.00" x2="270.0" y2="967.00" stroke="#FF6A00" stroke-width="1.8" stroke-dasharray="5 3"/>
  <line x1="370.0" y1="967.00" x2="450.0" y2="607.00" stroke="#FF6A00" stroke-width="1.8" stroke-dasharray="5 3"/>
  <g><rect x="270.0" y="986.00" width="100.0" height="26.0" rx="4" fill="#FFF7E6" stroke="#FF6A00" stroke-width="1.5"/><text x="320.0" y="1002.5" text-anchor="middle" font-size="9.5" fill="#262626">开关00146</text></g>
  <line x1="190.0" y1="810.00" x2="270.0" y2="999.00" stroke="#FF6A00" stroke-width="1.8" stroke-dasharray="5 3"/>
  <line x1="370.0" y1="999.00" x2="450.0" y2="607.00" stroke="#FF6A00" stroke-width="1.8" stroke-dasharray="5 3"/>
  <g><rect x="270.0" y="1018.00" width="100.0" height="26.0" rx="4" fill="#FFF7E6" stroke="#FF6A00" stroke-width="1.5"/><text x="320.0" y="1034.5" text-anchor="middle" font-size="9.5" fill="#262626">开关00156</text></g>
  <line x1="190.0" y1="810.00" x2="270.0" y2="1031.00" stroke="#FF6A00" stroke-width="1.8" stroke-dasharray="5 3"/>
  <line x1="370.0" y1="1031.00" x2="450.0" y2="607.00" stroke="#FF6A00" stroke-width="1.8" stroke-dasharray="5 3"/>
  <g><rect x="270.0" y="1050.00" width="100.0" height="26.0" rx="4" fill="#FFF7E6" stroke="#FF6A00" stroke-width="1.5"/><text x="320.0" y="1066.5" text-anchor="middle" font-size="9.5" fill="#262626">开关00158</text></g>
  <line x1="190.0" y1="810.00" x2="270.0" y2="1063.00" stroke="#FF6A00" stroke-width="1.8" stroke-dasharray="5 3"/>
  <line x1="370.0" y1="1063.00" x2="450.0" y2="607.00" stroke="#FF6A00" stroke-width="1.8" stroke-dasharray="5 3"/>
  <g><rect x="270.0" y="1082.00" width="100.0" height="26.0" rx="4" fill="#FFF7E6" stroke="#FF6A00" stroke-width="1.5"/><text x="320.0" y="1098.5" text-anchor="middle" font-size="9.5" fill="#262626">开关00164</text></g>
  <line x1="190.0" y1="810.00" x2="270.0" y2="1095.00" stroke="#FF6A00" stroke-width="1.8" stroke-dasharray="5 3"/>
  <line x1="370.0" y1="1095.00" x2="450.0" y2="607.00" stroke="#FF6A00" stroke-width="1.8" stroke-dasharray="5 3"/>
  <g><rect x="450.0" y="1291.00" width="140.0" height="60.0" rx="8" fill="white" stroke="#FF6A00" stroke-width="2.5"/><text x="520.0" y="1317.0" text-anchor="middle" font-size="12" font-weight="bold" fill="#262626">10kVLINE057</text><text x="520.0" y="1335.0" text-anchor="middle" font-size="9" fill="#595959">10个联络开关</text></g>
  <g><rect x="270.0" y="1156.00" width="100.0" height="26.0" rx="4" fill="#FFF7E6" stroke="#FF6A00" stroke-width="1.5"/><text x="320.0" y="1172.5" text-anchor="middle" font-size="9.5" fill="#262626">开关00006</text></g>
  <line x1="190.0" y1="810.00" x2="270.0" y2="1169.00" stroke="#FF6A00" stroke-width="1.8" stroke-dasharray="5 3"/>
  <line x1="370.0" y1="1169.00" x2="450.0" y2="1321.00" stroke="#FF6A00" stroke-width="1.8" stroke-dasharray="5 3"/>
  <g><rect x="270.0" y="1188.00" width="100.0" height="26.0" rx="4" fill="#FFF7E6" stroke="#FF6A00" stroke-width="1.5"/><text x="320.0" y="1204.5" text-anchor="middle" font-size="9.5" fill="#262626">开关00007</text></g>
  <line x1="190.0" y1="810.00" x2="270.0" y2="1201.00" stroke="#FF6A00" stroke-width="1.8" stroke-dasharray="5 3"/>
  <line x1="370.0" y1="1201.00" x2="450.0" y2="1321.00" stroke="#FF6A00" stroke-width="1.8" stroke-dasharray="5 3"/>
  <g><rect x="270.0" y="1220.00" width="100.0" height="26.0" rx="4" fill="#FFF7E6" stroke="#FF6A00" stroke-width="1.5"/><text x="320.0" y="1236.5" text-anchor="middle" font-size="9.5" fill="#262626">开关00008</text></g>
  <line x1="190.0" y1="810.00" x2="270.0" y2="1233.00" stroke="#FF6A00" stroke-width="1.8" stroke-dasharray="5 3"/>
  <line x1="370.0" y1="1233.00" x2="450.0" y2="1321.00" stroke="#FF6A00" stroke-width="1.8" stroke-dasharray="5 3"/>
  <g><rect x="270.0" y="1252.00" width="100.0" height="26.0" rx="4" fill="#FFF7E6" stroke="#FF6A00" stroke-width="1.5"/><text x="320.0" y="1268.5" text-anchor="middle" font-size="9.5" fill="#262626">开关00009</text></g>
  <line x1="190.0" y1="810.00" x2="270.0" y2="1265.00" stroke="#FF6A00" stroke-width="1.8" stroke-dasharray="5 3"/>
  <line x1="370.0" y1="1265.00" x2="450.0" y2="1321.00" stroke="#FF6A00" stroke-width="1.8" stroke-dasharray="5 3"/>
  <g><rect x="270.0" y="1284.00" width="100.0" height="26.0" rx="4" fill="#FFF7E6" stroke="#FF6A00" stroke-width="1.5"/><text x="320.0" y="1300.5" text-anchor="middle" font-size="9.5" fill="#262626">开关00011</text></g>
  <line x1="190.0" y1="810.00" x2="270.0" y2="1297.00" stroke="#FF6A00" stroke-width="1.8" stroke-dasharray="5 3"/>
  <line x1="370.0" y1="1297.00" x2="450.0" y2="1321.00" stroke="#FF6A00" stroke-width="1.8" stroke-dasharray="5 3"/>
  <g><rect x="270.0" y="1316.00" width="100.0" height="26.0" rx="4" fill="#FFF7E6" stroke="#FF6A00" stroke-width="1.5"/><text x="320.0" y="1332.5" text-anchor="middle" font-size="9.5" fill="#262626">开关00012</text></g>
  <line x1="190.0" y1="810.00" x2="270.0" y2="1329.00" stroke="#FF6A00" stroke-width="1.8" stroke-dasharray="5 3"/>
  <line x1="370.0" y1="1329.00" x2="450.0" y2="1321.00" stroke="#FF6A00" stroke-width="1.8" stroke-dasharray="5 3"/>
  <g><rect x="270.0" y="1348.00" width="100.0" height="26.0" rx="4" fill="#FFF7E6" stroke="#FF6A00" stroke-width="1.5"/><text x="320.0" y="1364.5" text-anchor="middle" font-size="9.5" fill="#262626">开关00013</text></g>
  <line x1="190.0" y1="810.00" x2="270.0" y2="1361.00" stroke="#FF6A00" stroke-width="1.8" stroke-dasharray="5 3"/>
  <line x1="370.0" y1="1361.00" x2="450.0" y2="1321.00" stroke="#FF6A00" stroke-width="1.8" stroke-dasharray="5 3"/>
  <g><rect x="270.0" y="1380.00" width="100.0" height="26.0" rx="4" fill="#FFF7E6" stroke="#FF6A00" stroke-width="1.5"/><text x="320.0" y="1396.5" text-anchor="middle" font-size="9.5" fill="#262626">开关00026</text></g>
  <line x1="190.0" y1="810.00" x2="270.0" y2="1393.00" stroke="#FF6A00" stroke-width="1.8" stroke-dasharray="5 3"/>
  <line x1="370.0" y1="1393.00" x2="450.0" y2="1321.00" stroke="#FF6A00" stroke-width="1.8" stroke-dasharray="5 3"/>
  <g><rect x="270.0" y="1412.00" width="100.0" height="26.0" rx="4" fill="#FFF7E6" stroke="#FF6A00" stroke-width="1.5"/><text x="320.0" y="1428.5" text-anchor="middle" font-size="9.5" fill="#262626">开关00034</text></g>
  <line x1="190.0" y1="810.00" x2="270.0" y2="1425.00" stroke="#FF6A00" stroke-width="1.8" stroke-dasharray="5 3"/>
  <line x1="370.0" y1="1425.00" x2="450.0" y2="1321.00" stroke="#FF6A00" stroke-width="1.8" stroke-dasharray="5 3"/>
  <g><rect x="270.0" y="1444.00" width="100.0" height="26.0" rx="4" fill="#FFF7E6" stroke="#FF6A00" stroke-width="1.5"/><text x="320.0" y="1460.5" text-anchor="middle" font-size="9.5" fill="#262626">开关00188</text></g>
  <line x1="190.0" y1="810.00" x2="270.0" y2="1457.00" stroke="#FF6A00" stroke-width="1.8" stroke-dasharray="5 3"/>
  <line x1="370.0" y1="1457.00" x2="450.0" y2="1321.00" stroke="#FF6A00" stroke-width="1.8" stroke-dasharray="5 3"/>
  <text x="320.00" y="26" text-anchor="middle" font-weight="bold" font-size="15" fill="#262626">【馈线联络关系图】 10kVLINE111  (联络馈线 2 / 联络开关 42)</text>
  <g transform="translate(50.0, 1545.0)"><rect x="0" y="-6" width="14" height="3" fill="#FF6A00"/><text x="20" y="0" font-size="9" fill="#262626">馈线—联络开关—馈线 配对关系</text><rect x="200" y="-10" width="14" height="14" rx="2" fill="#FFF7E6" stroke="#FF6A00"/><text x="220" y="0" font-size="9" fill="#262626">联络开关</text></g>
</svg>
